<svg xmlns="http://www.w3.org/2000/svg" width="722" height="174" viewBox="0 0 722 174"><g fill="none" fill-rule="evenodd"><g stroke-linejoin="square"><rect width="712" height="164" x="5" y="5" fill="#F7931D" stroke="#000" stroke-width="10" rx="20"/><rect width="714" height="166" x="4" y="4" stroke="#FE0000" stroke-width="8" rx="20"/></g><g fill-rule="nonzero" transform="translate(43 43)"><path fill="#FFF" stroke="#000" stroke-width="3" d="M39.4038128,-1.5 C44.9806021,-1.5 49.7236102,0.463281821 53.6342703,4.38640705 C57.5430781,8.30767411 59.5,13.0633281 59.5,18.6554622 C59.5,22.872624 58.3190044,26.670327 55.9638529,30.0507462 C54.231552,32.5371693 52.1154542,34.5199885 49.6170922,36.000016 C52.1158044,37.4803397 54.2316954,39.4630365 55.9638529,41.9492538 C58.3190044,45.329673 59.5,49.127376 59.5,53.3445378 C59.5,58.9366719 57.5430781,63.6923259 53.6342703,67.613593 C49.7236102,71.5367182 44.9806021,73.5 39.4038128,73.5 L39.4038128,73.5 L-1.5,73.5 L-1.5,-1.5 Z M107.577129,-3.11932761 L147.472197,73.5 L63.4037685,73.5 L107.577129,-3.11932761 Z M188.403813,-1.5 C193.980602,-1.5 198.72361,0.463281821 202.63427,4.38640705 C206.543078,8.30767411 208.5,13.0633281 208.5,18.6554622 C208.5,22.872624 207.319004,26.670327 204.963853,30.0507462 C203.231695,32.5369635 201.115804,34.5196603 198.617092,36.000016 C201.115804,37.4803397 203.231695,39.4630365 204.963853,41.9492538 C207.319004,45.329673 208.5,49.127376 208.5,53.3445378 C208.5,58.9366719 206.543078,63.6923259 202.63427,67.613593 C198.72361,71.5367182 193.980602,73.5 188.403813,73.5 L188.403813,73.5 L147.5,73.5 L147.5,-1.5 Z M291.653424,-1.5 L246.516862,73.5 L211.392922,73.5 L233.767152,35.0131621 L211.316865,-1.5 L291.653424,-1.5 Z M367.031646,-1.5 L367.031646,43.9789916 L388.5,43.9789916 L388.5,73.5 L337.5,73.5 L337.5,-1.5 L367.031646,-1.5 Z M436.577129,-3.11932761 L476.472197,73.5 L392.403769,73.5 L436.577129,-3.11932761 Z M552.5,-3.62132034 L552.5,73.5 L477.5,73.5 L477.5,-3.62132034 L515,33.8786797 L552.5,-3.62132034 Z M593.043269,-1.5 C600.858896,-1.5 607.556594,1.28341713 613.134542,6.85466937 C618.713198,12.4266286 621.5,19.1172231 621.5,26.9243697 C621.5,34.7983139 618.713304,41.537786 613.137906,47.1419601 C607.555235,52.7534454 600.851631,55.5205416 593.0275,55.4494969 L593.0275,55.4494969 L584.951923,55.3645929 L584.951923,73.5 L555.5,73.5 L555.5,-1.5 Z"/><path fill="#2D3191" stroke="#000" stroke-width="3" d="M14.5,14.5 L55.4038128,14.5 C60.9806021,14.5 65.7236102,16.4632818 69.6342703,20.386407 C73.5430781,24.3076741 75.5,29.0633281 75.5,34.6554622 C75.5,38.872624 74.3190044,42.670327 71.9638529,46.0507462 C70.231552,48.5371693 68.1154542,50.5199885 65.6170922,52.000016 C68.1158044,53.4803397 70.2316954,55.4630365 71.9638529,57.9492538 C74.3190044,61.329673 75.5,65.127376 75.5,69.3445378 C75.5,74.9366719 73.5430781,79.6923259 69.6342703,83.613593 C65.7236102,87.5367182 60.9806021,89.5 55.4038128,89.5 L55.4038128,89.5 L14.5,89.5 L14.5,14.5 Z M123.577129,12.8806724 L163.472197,89.5 L79.4037685,89.5 L123.577129,12.8806724 Z M163.5,14.5 L204.403813,14.5 C209.980602,14.5 214.72361,16.4632818 218.63427,20.386407 C222.543078,24.3076741 224.5,29.0633281 224.5,34.6554622 C224.5,38.872624 223.319004,42.670327 220.963853,46.0507462 C219.231552,48.5371693 217.115454,50.5199885 214.617092,52.000016 C217.115804,53.4803397 219.231695,55.4630365 220.963853,57.9492538 C223.319004,61.329673 224.5,65.127376 224.5,69.3445378 C224.5,74.9366719 222.543078,79.6923259 218.63427,83.613593 C214.72361,87.5367182 209.980602,89.5 204.403813,89.5 L204.403813,89.5 L163.5,89.5 L163.5,14.5 Z M307.653424,14.5 L262.516862,89.5 L227.392922,89.5 L249.767152,51.0131621 L227.316865,14.5 L307.653424,14.5 Z M353.5,14.5 L383.031646,14.5 L383.031646,59.9789916 L404.5,59.9789916 L404.5,89.5 L353.5,89.5 L353.5,14.5 Z M452.577129,12.8806724 L492.472197,89.5 L408.403769,89.5 L452.577129,12.8806724 Z M568.5,12.3786797 L568.5,89.5 L493.5,89.5 L493.5,12.3786797 L531,49.8786797 L568.5,12.3786797 Z M609.043269,14.5 C616.858896,14.5 623.556594,17.2834171 629.134542,22.8546694 C634.713198,28.4266286 637.5,35.1172231 637.5,42.9243697 C637.5,50.7983139 634.713304,57.537786 629.137906,63.1419601 C623.555235,68.7534454 616.851631,71.5205416 609.0275,71.4494969 L609.0275,71.4494969 L600.951923,71.3645929 L600.951923,89.5 L571.5,89.5 L571.5,14.5 Z"/><g transform="translate(8 8)"><path fill="#000" stroke="#000" stroke-width="3" d="M39.4038128,-1.5 C44.9806021,-1.5 49.7236102,0.463281821 53.6342703,4.38640705 C57.5430781,8.30767411 59.5,13.0633281 59.5,18.6554622 C59.5,22.872624 58.3190044,26.670327 55.9638529,30.0507462 C54.231552,32.5371693 52.1154542,34.5199885 49.6170922,36.000016 C52.1158044,37.4803397 54.2316954,39.4630365 55.9638529,41.9492538 C58.3190044,45.329673 59.5,49.127376 59.5,53.3445378 C59.5,58.9366719 57.5430781,63.6923259 53.6342703,67.613593 C49.7236102,71.5367182 44.9806021,73.5 39.4038128,73.5 L39.4038128,73.5 L-1.5,73.5 L-1.5,-1.5 Z M107.577129,-3.11932761 L147.472197,73.5 L63.4037685,73.5 L107.577129,-3.11932761 Z M188.403813,-1.5 C193.980602,-1.5 198.72361,0.463281821 202.63427,4.38640705 C206.543078,8.30767411 208.5,13.0633281 208.5,18.6554622 C208.5,22.872624 207.319004,26.670327 204.963853,30.0507462 C203.231695,32.5369635 201.115804,34.5196603 198.617092,36.000016 C201.115804,37.4803397 203.231695,39.4630365 204.963853,41.9492538 C207.319004,45.329673 208.5,49.127376 208.5,53.3445378 C208.5,58.9366719 206.543078,63.6923259 202.63427,67.613593 C198.72361,71.5367182 193.980602,73.5 188.403813,73.5 L188.403813,73.5 L147.5,73.5 L147.5,-1.5 Z M291.653424,-1.5 L246.516862,73.5 L211.392922,73.5 L233.767152,35.0131621 L211.316865,-1.5 L291.653424,-1.5 Z M367.031646,-1.5 L367.031646,43.9789916 L388.5,43.9789916 L388.5,73.5 L337.5,73.5 L337.5,-1.5 L367.031646,-1.5 Z M436.577129,-3.11932761 L476.472197,73.5 L392.403769,73.5 L436.577129,-3.11932761 Z M552.5,-3.62132034 L552.5,73.5 L477.5,73.5 L477.5,-3.62132034 L515,33.8786797 L552.5,-3.62132034 Z M593.043269,-1.5 C600.858896,-1.5 607.556594,1.28341713 613.134542,6.85466937 C618.713198,12.4266286 621.5,19.1172231 621.5,26.9243697 C621.5,34.7983139 618.713304,41.537786 613.137906,47.1419601 C607.555235,52.7534454 600.851631,55.5205416 593.0275,55.4494969 L593.0275,55.4494969 L584.951923,55.3645929 L584.951923,73.5 L555.5,73.5 L555.5,-1.5 Z"/><path fill="#FEFF00" d="M39.4038128,0 C44.5638359,0 48.9532062,1.81512605 52.5719237,5.44537815 C56.1906412,9.07563025 58,13.4789916 58,18.6554622 C58,22.5546218 56.9110341,26.0672269 54.7331023,29.1932773 C52.5551704,32.3193277 49.723859,34.5882353 46.2391681,36 C49.723859,37.4117647 52.5551704,39.6806723 54.7331023,42.8067227 C56.9110341,45.9327731 58,49.4453782 58,53.3445378 C58,58.5210084 56.1906412,62.9243697 52.5719237,66.5546218 C48.9532062,70.1848739 44.5638359,72 39.4038128,72 L-2.84217094e-14,72 L-2.84217094e-14,0 L39.4038128,0 Z M107.510178,0 L145,72 L66,72 L107.510178,0 Z M188.403813,0 C193.563836,0 197.953206,1.81512605 201.571924,5.44537815 C205.190641,9.07563025 207,13.4789916 207,18.6554622 C207,22.5546218 205.911034,26.0672269 203.733102,29.1932773 C201.55517,32.3193277 198.723859,34.5882353 195.239168,36 C198.723859,37.4117647 201.55517,39.6806723 203.733102,42.8067227 C205.911034,45.9327731 207,49.4453782 207,53.3445378 C207,58.5210084 205.190641,62.9243697 201.571924,66.5546218 C197.953206,70.1848739 193.563836,72 188.403813,72 L149,72 L149,0 L188.403813,0 Z M289,0 L245.668901,72 L214,72 L235.514745,34.9915966 L214,0 L289,0 Z M365.531646,0 L365.531646,45.4789916 L387,45.4789916 L387,72 L339,72 L339,0 L365.531646,0 Z M436.510178,0 L474,72 L395,72 L436.510178,0 Z M551,0 L551,72 L479,72 L479,0 L515,36 L551,0 Z M593.043269,0 C600.447115,0 606.790865,2.63865546 612.074519,7.91596639 C617.358173,13.1932773 620,19.5294118 620,26.9243697 C620,34.3865546 617.358173,40.7731092 612.074519,46.0840336 C606.790865,51.394958 600.447115,54.0168067 593.043269,53.9495798 L583.451923,53.8487395 L583.451923,72 L557,72 L557,0 L593.043269,0 Z M7.23743501,32.5714286 L4.82495667,32.5714286 L4.82495667,67.1596639 L25.6325823,67.1596639 L25.6325823,64.7394958 L7.23743501,64.7394958 L7.23743501,32.5714286 Z M156.237435,32.5714286 L153.824957,32.5714286 L153.824957,67.1596639 L174.632582,67.1596639 L174.632582,64.7394958 L156.237435,64.7394958 L156.237435,32.5714286 Z M346.291139,15.6302521 L343.860759,15.6302521 L343.860759,67.1596639 L351.35443,67.1596639 L351.35443,64.7394958 L346.291139,64.7394958 L346.291139,15.6302521 Z M546.159664,50.6218487 L543.739496,50.6218487 L543.739496,64.7394958 L526.092437,64.7394958 L526.092437,67.1596639 L546.159664,67.1596639 L546.159664,50.6218487 Z M564.269231,15.6302521 L561.846154,15.6302521 L561.846154,67.1596639 L569.317308,67.1596639 L569.317308,64.7394958 L564.269231,64.7394958 L564.269231,15.6302521 Z M126.003817,45.7815126 L123.89313,46.9915966 L133.03944,64.5378151 L111.430025,64.5378151 L111.430025,66.9579832 L137.059796,66.9579832 L126.003817,45.7815126 Z M455.003817,45.7815126 L452.89313,46.9915966 L462.03944,64.5378151 L440.430025,64.5378151 L440.430025,66.9579832 L466.059796,66.9579832 L455.003817,45.7815126 Z M39.4038128,49.6134454 C38.3986135,49.6134454 37.5274408,49.9831933 36.7902946,50.7226891 C36.0531485,51.4621849 35.6845754,52.3361345 35.6845754,53.3445378 C35.6845754,54.3529412 36.0531485,55.2268908 36.7902946,55.9663866 C37.5274408,56.7058824 38.3986135,57.0756303 39.4038128,57.0756303 C40.4090121,57.0756303 41.2801849,56.7058824 42.017331,55.9663866 C42.7544772,55.2268908 43.1230503,54.3529412 43.1230503,53.3445378 C43.1230503,52.3361345 42.7544772,51.4621849 42.017331,50.7226891 C41.2801849,49.9831933 40.4090121,49.6134454 39.4038128,49.6134454 Z M188.403813,49.6134454 C187.398614,49.6134454 186.527441,49.9831933 185.790295,50.7226891 C185.053148,51.4621849 184.684575,52.3361345 184.684575,53.3445378 C184.684575,54.3529412 185.053148,55.2268908 185.790295,55.9663866 C186.527441,56.7058824 187.398614,57.0756303 188.403813,57.0756303 C189.409012,57.0756303 190.280185,56.7058824 191.017331,55.9663866 C191.754477,55.2268908 192.12305,54.3529412 192.12305,53.3445378 C192.12305,52.3361345 191.754477,51.4621849 191.017331,50.7226891 C190.280185,49.9831933 189.409012,49.6134454 188.403813,49.6134454 Z M106.304071,41.4453782 C105.298982,41.4453782 104.427905,41.7983193 103.69084,42.5042017 C102.953774,43.210084 102.585242,44.0672269 102.585242,45.0756303 C102.585242,46.1512605 102.953774,47.0420168 103.69084,47.7478992 C104.427905,48.4537815 105.298982,48.8067227 106.304071,48.8067227 C107.30916,48.8067227 108.180237,48.4537815 108.917303,47.7478992 C109.654368,47.0420168 110.022901,46.1512605 110.022901,45.0756303 C110.022901,44.0672269 109.654368,43.210084 108.917303,42.5042017 C108.180237,41.7983193 107.30916,41.4453782 106.304071,41.4453782 Z M435.304071,41.4453782 C434.298982,41.4453782 433.427905,41.7983193 432.69084,42.5042017 C431.953774,43.210084 431.585242,44.0672269 431.585242,45.0756303 C431.585242,46.1512605 431.953774,47.0420168 432.69084,47.7478992 C433.427905,48.4537815 434.298982,48.8067227 435.304071,48.8067227 C436.30916,48.8067227 437.180237,48.4537815 437.917303,47.7478992 C438.654368,47.0420168 439.022901,46.1512605 439.022901,45.0756303 C439.022901,44.0672269 438.654368,43.210084 437.917303,42.5042017 C437.180237,41.7983193 436.30916,41.4453782 435.304071,41.4453782 Z M483.840336,11.697479 L483.840336,37.3109244 L486.260504,37.3109244 L486.260504,17.5462185 L495.840336,27.1260504 L497.554622,25.4117647 L483.840336,11.697479 Z M597.081731,23.4957983 C596.072115,23.4957983 595.197115,23.8655462 594.456731,24.605042 C593.716346,25.3445378 593.346154,26.2184874 593.346154,27.2268908 C593.346154,28.2352941 593.716346,29.1092437 594.456731,29.8487395 C595.197115,30.5882353 596.072115,30.9579832 597.081731,30.9579832 C598.091346,30.9579832 598.966346,30.5882353 599.706731,29.8487395 C600.447115,29.1092437 600.817308,28.2352941 600.817308,27.2268908 C600.817308,26.2184874 600.447115,25.3445378 599.706731,24.605042 C598.966346,23.8655462 598.091346,23.4957983 597.081731,23.4957983 Z M249.690349,4.84033613 L222.646113,4.84033613 L235.414209,25.6134454 L237.424933,24.302521 L226.969169,7.2605042 L249.690349,7.2605042 L249.690349,4.84033613 Z M39.4038128,14.9243697 C38.3986135,14.9243697 37.5274408,15.2941176 36.7902946,16.0336134 C36.0531485,16.7731092 35.6845754,17.6470588 35.6845754,18.6554622 C35.6845754,19.6638655 36.0531485,20.5378151 36.7902946,21.2773109 C37.5274408,22.0168067 38.3986135,22.3865546 39.4038128,22.3865546 C40.4090121,22.3865546 41.2801849,22.0168067 42.017331,21.2773109 C42.7544772,20.5378151 43.1230503,19.6638655 43.1230503,18.6554622 C43.1230503,17.6470588 42.7544772,16.7731092 42.017331,16.0336134 C41.2801849,15.2941176 40.4090121,14.9243697 39.4038128,14.9243697 Z M188.403813,14.9243697 C187.398614,14.9243697 186.527441,15.2941176 185.790295,16.0336134 C185.053148,16.7731092 184.684575,17.6470588 184.684575,18.6554622 C184.684575,19.6638655 185.053148,20.5378151 185.790295,21.2773109 C186.527441,22.0168067 187.398614,22.3865546 188.403813,22.3865546 C189.409012,22.3865546 190.280185,22.0168067 191.017331,21.2773109 C191.754477,20.5378151 192.12305,19.6638655 192.12305,18.6554622 C192.12305,17.6470588 191.754477,16.7731092 191.017331,16.0336134 C190.280185,15.2941176 189.409012,14.9243697 188.403813,14.9243697 Z"/></g></g></g></svg>